<svg xmlns="http://www.w3.org/2000/svg" viewBox="0 0 1200 630" role="img" aria-labelledby="title desc">
  <title id="title">AI Supermarket social card</title>
  <desc id="desc">AI Supermarket social card showing a verified fact commerce command center with shelves, scanner beam, and Fact Pack SKUs.</desc>
  <defs>
    <linearGradient id="bg" x1="0" y1="0" x2="1" y2="1">
      <stop offset="0" stop-color="#050505"/>
      <stop offset=".52" stop-color="#101315"/>
      <stop offset="1" stop-color="#20090b"/>
    </linearGradient>
    <linearGradient id="rail" x1="0" y1="0" x2="1" y2="0">
      <stop offset="0" stop-color="#d71920"/>
      <stop offset=".5" stop-color="#20f29c"/>
      <stop offset="1" stop-color="#d71920"/>
    </linearGradient>
  </defs>
  <rect width="1200" height="630" fill="url(#bg)"/>
  <path d="M0 96h1200M0 194h1200M0 292h1200M0 390h1200M0 488h1200" stroke="#f6f1e6" stroke-opacity=".09" stroke-width="16"/>
  <path d="M0 318h1200" stroke="url(#rail)" stroke-width="16"/>
  <g transform="translate(72 62)">
    <rect width="118" height="118" rx="24" fill="#050505" stroke="#2d3338" stroke-width="4"/>
    <path d="M18 36h82M18 62h82M18 88h82" stroke="#f6f1e6" stroke-opacity=".22" stroke-width="8"/>
    <path d="M30 96 56 25l26 71H64l-4-13H52l-4 13H30z" fill="#f6f1e6"/>
    <path d="M80 94c18 0 28-7 28-19 0-11-8-16-25-20-19-5-31-14-31-33 0-20 16-32 41-32 13 0 25 3 36 8l-9 18c-9-4-18-7-27-7-13 0-20 5-20 13s6 11 22 15c22 5 33 15 33 35 0 22-18 36-46 36-15 0-28-3-40-10l9-19c10 8 20 15 29 15z" fill="#f6f1e6"/>
    <path d="M14 66h96" stroke="#d71920" stroke-width="9" stroke-linecap="round"/>
  </g>
  <text x="224" y="122" fill="#f6f1e6" font-size="40" font-weight="850" font-family="Inter, ui-sans-serif, system-ui, -apple-system, BlinkMacSystemFont, 'Segoe UI', sans-serif">AI Supermarket</text>
  <text x="226" y="160" fill="#20f29c" font-size="17" font-weight="800" font-family="SFMono-Regular, Consolas, monospace">SOURCE-BACKED FACT PACKS FOR ASSISTANTS</text>
  <text x="72" y="294" fill="#f6f1e6" font-size="74" font-weight="860" font-family="Inter, ui-sans-serif, system-ui, -apple-system, BlinkMacSystemFont, 'Segoe UI', sans-serif">The verified fact layer</text>
  <text x="72" y="372" fill="#f6f1e6" font-size="74" font-weight="860" font-family="Inter, ui-sans-serif, system-ui, -apple-system, BlinkMacSystemFont, 'Segoe UI', sans-serif">where AI assistants shop</text>
  <text x="72" y="450" fill="#f6f1e6" font-size="74" font-weight="860" font-family="Inter, ui-sans-serif, system-ui, -apple-system, BlinkMacSystemFont, 'Segoe UI', sans-serif">for reality.</text>
  <g transform="translate(806 86)" fill="none" stroke="#f6f1e6" stroke-opacity=".2" stroke-width="3">
    <rect x="0" y="0" width="290" height="400"/>
    <path d="M0 80h290M0 160h290M0 240h290M0 320h290M72 0v400M146 0v400M220 0v400"/>
  </g>
  <g transform="translate(846 164)">
    <rect width="226" height="96" rx="6" fill="#050505" stroke="#20f29c" stroke-width="2"/>
    <text x="18" y="36" fill="#20f29c" font-size="15" font-weight="800" font-family="SFMono-Regular, Consolas, monospace">FACT PACK SKU</text>
    <text x="18" y="63" fill="#f6f1e6" font-size="18" font-weight="800" font-family="SFMono-Regular, Consolas, monospace">EVIDENCE: LIVE</text>
    <path d="M18 76h8v14h-8zm16 0h4v14h-4zm10 0h13v14H44zm20 0h4v14h-4zm10 0h20v14H74zm28 0h5v14h-5zm12 0h14v14h-14zm22 0h5v14h-5zm16 0h24v14h-24z" fill="#f6f1e6"/>
  </g>
  <g transform="translate(846 286)">
    <rect width="226" height="96" rx="6" fill="#050505" stroke="#d71920" stroke-width="2"/>
    <text x="18" y="36" fill="#ffb84d" font-size="15" font-weight="800" font-family="SFMono-Regular, Consolas, monospace">PIPELINE</text>
    <text x="18" y="63" fill="#f6f1e6" font-size="17" font-weight="800" font-family="SFMono-Regular, Consolas, monospace">SCOUT VERIFY PROBE</text>
  </g>
  <text x="72" y="548" fill="#c7d0d7" font-size="22" font-weight="700" font-family="Inter, ui-sans-serif, system-ui, sans-serif">No hallucinated inventory. No empty SEO shelves. Real sources, machine-readable shelves.</text>
</svg>
